<mxfile host="app.diagrams.net" agent="Mozilla/5.0 (Windows NT 10.0; Win64; x64) AppleWebKit/537.36 (KHTML, like Gecko) Chrome/138.0.0.0 Safari/537.36" version="27.2.0">
  <diagram name="第 1 页" id="xXjs1SMjFnLauidqir4h">
    <mxGraphModel dx="1426" dy="751" grid="1" gridSize="10" guides="1" tooltips="1" connect="1" arrows="1" fold="1" page="1" pageScale="1" pageWidth="4681" pageHeight="3300" math="0" shadow="0">
      <root>
        <mxCell id="0" />
        <mxCell id="1" parent="0" />
        <mxCell id="3vJK2soGwi-nod_TVArV-18" style="edgeStyle=orthogonalEdgeStyle;rounded=0;orthogonalLoop=1;jettySize=auto;html=1;exitX=0.5;exitY=1;exitDx=0;exitDy=0;entryX=0.5;entryY=0;entryDx=0;entryDy=0;" edge="1" parent="1" source="3vJK2soGwi-nod_TVArV-1" target="3vJK2soGwi-nod_TVArV-2">
          <mxGeometry relative="1" as="geometry" />
        </mxCell>
        <mxCell id="3vJK2soGwi-nod_TVArV-1" value="PVE结算" style="rounded=0;whiteSpace=wrap;html=1;" vertex="1" parent="1">
          <mxGeometry x="255" y="120" width="310" height="40" as="geometry" />
        </mxCell>
        <mxCell id="3vJK2soGwi-nod_TVArV-17" style="edgeStyle=orthogonalEdgeStyle;rounded=0;orthogonalLoop=1;jettySize=auto;html=1;exitX=0;exitY=0.5;exitDx=0;exitDy=0;" edge="1" parent="1" source="3vJK2soGwi-nod_TVArV-2" target="3vJK2soGwi-nod_TVArV-3">
          <mxGeometry relative="1" as="geometry" />
        </mxCell>
        <mxCell id="3vJK2soGwi-nod_TVArV-22" style="edgeStyle=orthogonalEdgeStyle;rounded=0;orthogonalLoop=1;jettySize=auto;html=1;exitX=0.5;exitY=1;exitDx=0;exitDy=0;entryX=0.5;entryY=0;entryDx=0;entryDy=0;" edge="1" parent="1" source="3vJK2soGwi-nod_TVArV-2" target="3vJK2soGwi-nod_TVArV-12">
          <mxGeometry relative="1" as="geometry">
            <mxPoint x="410" y="240" as="targetPoint" />
          </mxGeometry>
        </mxCell>
        <mxCell id="3vJK2soGwi-nod_TVArV-2" value="是否通关" style="rhombus;whiteSpace=wrap;html=1;" vertex="1" parent="1">
          <mxGeometry x="355" y="180" width="110" height="40" as="geometry" />
        </mxCell>
        <mxCell id="3vJK2soGwi-nod_TVArV-3" value="结束" style="rounded=0;whiteSpace=wrap;html=1;" vertex="1" parent="1">
          <mxGeometry x="200" y="185" width="100" height="30" as="geometry" />
        </mxCell>
        <mxCell id="3vJK2soGwi-nod_TVArV-35" style="edgeStyle=orthogonalEdgeStyle;rounded=0;orthogonalLoop=1;jettySize=auto;html=1;exitX=1;exitY=0.5;exitDx=0;exitDy=0;entryX=0.5;entryY=0;entryDx=0;entryDy=0;" edge="1" parent="1" source="3vJK2soGwi-nod_TVArV-8" target="3vJK2soGwi-nod_TVArV-10">
          <mxGeometry relative="1" as="geometry" />
        </mxCell>
        <mxCell id="3vJK2soGwi-nod_TVArV-40" style="edgeStyle=orthogonalEdgeStyle;rounded=0;orthogonalLoop=1;jettySize=auto;html=1;exitX=0.5;exitY=1;exitDx=0;exitDy=0;entryX=0.5;entryY=0;entryDx=0;entryDy=0;" edge="1" parent="1" source="3vJK2soGwi-nod_TVArV-8" target="3vJK2soGwi-nod_TVArV-16">
          <mxGeometry relative="1" as="geometry" />
        </mxCell>
        <mxCell id="3vJK2soGwi-nod_TVArV-8" value="模式是否掉箱子" style="rhombus;whiteSpace=wrap;html=1;" vertex="1" parent="1">
          <mxGeometry x="345" y="460" width="130" height="50" as="geometry" />
        </mxCell>
        <mxCell id="3vJK2soGwi-nod_TVArV-38" style="edgeStyle=orthogonalEdgeStyle;rounded=0;orthogonalLoop=1;jettySize=auto;html=1;exitX=0.5;exitY=1;exitDx=0;exitDy=0;entryX=0.5;entryY=0;entryDx=0;entryDy=0;" edge="1" parent="1" source="3vJK2soGwi-nod_TVArV-10" target="3vJK2soGwi-nod_TVArV-11">
          <mxGeometry relative="1" as="geometry" />
        </mxCell>
        <mxCell id="3vJK2soGwi-nod_TVArV-10" value="宝箱栏位是否已满" style="rhombus;whiteSpace=wrap;html=1;" vertex="1" parent="1">
          <mxGeometry x="505" y="510" width="120" height="50" as="geometry" />
        </mxCell>
        <mxCell id="3vJK2soGwi-nod_TVArV-39" style="edgeStyle=orthogonalEdgeStyle;rounded=0;orthogonalLoop=1;jettySize=auto;html=1;exitX=0.5;exitY=1;exitDx=0;exitDy=0;entryX=0.5;entryY=0;entryDx=0;entryDy=0;" edge="1" parent="1" source="3vJK2soGwi-nod_TVArV-11" target="3vJK2soGwi-nod_TVArV-16">
          <mxGeometry relative="1" as="geometry" />
        </mxCell>
        <mxCell id="3vJK2soGwi-nod_TVArV-11" value="随机宝箱" style="rounded=0;whiteSpace=wrap;html=1;" vertex="1" parent="1">
          <mxGeometry x="515" y="580" width="100" height="30" as="geometry" />
        </mxCell>
        <mxCell id="3vJK2soGwi-nod_TVArV-28" style="edgeStyle=orthogonalEdgeStyle;rounded=0;orthogonalLoop=1;jettySize=auto;html=1;exitX=0.5;exitY=1;exitDx=0;exitDy=0;entryX=0.5;entryY=0;entryDx=0;entryDy=0;" edge="1" parent="1" source="3vJK2soGwi-nod_TVArV-12">
          <mxGeometry relative="1" as="geometry">
            <mxPoint x="410" y="310" as="targetPoint" />
          </mxGeometry>
        </mxCell>
        <mxCell id="3vJK2soGwi-nod_TVArV-12" value="检查是否有过期宝箱" style="rounded=0;whiteSpace=wrap;html=1;" vertex="1" parent="1">
          <mxGeometry x="340" y="248" width="140" height="40" as="geometry" />
        </mxCell>
        <mxCell id="3vJK2soGwi-nod_TVArV-43" style="edgeStyle=orthogonalEdgeStyle;rounded=0;orthogonalLoop=1;jettySize=auto;html=1;exitX=0.5;exitY=1;exitDx=0;exitDy=0;" edge="1" parent="1" source="3vJK2soGwi-nod_TVArV-16" target="3vJK2soGwi-nod_TVArV-21">
          <mxGeometry relative="1" as="geometry" />
        </mxCell>
        <mxCell id="3vJK2soGwi-nod_TVArV-16" value="通知客户端宝箱数据" style="rounded=0;whiteSpace=wrap;html=1;" vertex="1" parent="1">
          <mxGeometry x="345" y="650" width="130" height="40" as="geometry" />
        </mxCell>
        <mxCell id="3vJK2soGwi-nod_TVArV-19" value="否" style="text;html=1;align=center;verticalAlign=middle;resizable=0;points=[];autosize=1;strokeColor=none;fillColor=none;" vertex="1" parent="1">
          <mxGeometry x="311" y="174" width="40" height="30" as="geometry" />
        </mxCell>
        <mxCell id="3vJK2soGwi-nod_TVArV-21" value="返回新增的宝箱数据" style="rounded=0;whiteSpace=wrap;html=1;" vertex="1" parent="1">
          <mxGeometry x="345" y="710" width="130" height="40" as="geometry" />
        </mxCell>
        <mxCell id="3vJK2soGwi-nod_TVArV-23" value="如果有就发放" style="text;html=1;align=center;verticalAlign=middle;resizable=0;points=[];autosize=1;strokeColor=none;fillColor=none;" vertex="1" parent="1">
          <mxGeometry x="625" y="580" width="100" height="30" as="geometry" />
        </mxCell>
        <mxCell id="3vJK2soGwi-nod_TVArV-24" value="是" style="text;html=1;align=center;verticalAlign=middle;resizable=0;points=[];autosize=1;strokeColor=none;fillColor=none;" vertex="1" parent="1">
          <mxGeometry x="410" y="218" width="40" height="30" as="geometry" />
        </mxCell>
        <mxCell id="3vJK2soGwi-nod_TVArV-34" style="edgeStyle=orthogonalEdgeStyle;rounded=0;orthogonalLoop=1;jettySize=auto;html=1;exitX=0.5;exitY=1;exitDx=0;exitDy=0;entryX=0.5;entryY=0;entryDx=0;entryDy=0;" edge="1" parent="1" source="3vJK2soGwi-nod_TVArV-29" target="3vJK2soGwi-nod_TVArV-8">
          <mxGeometry relative="1" as="geometry" />
        </mxCell>
        <mxCell id="3vJK2soGwi-nod_TVArV-29" value="更新倒计时&lt;div&gt;如果已经达到最大倒计时 设置红点为true&lt;/div&gt;" style="rounded=0;whiteSpace=wrap;html=1;" vertex="1" parent="1">
          <mxGeometry x="495" y="360" width="140" height="60" as="geometry" />
        </mxCell>
        <mxCell id="3vJK2soGwi-nod_TVArV-32" style="edgeStyle=orthogonalEdgeStyle;rounded=0;orthogonalLoop=1;jettySize=auto;html=1;exitX=1;exitY=0.5;exitDx=0;exitDy=0;entryX=0.5;entryY=0;entryDx=0;entryDy=0;" edge="1" parent="1" source="3vJK2soGwi-nod_TVArV-30" target="3vJK2soGwi-nod_TVArV-29">
          <mxGeometry relative="1" as="geometry" />
        </mxCell>
        <mxCell id="3vJK2soGwi-nod_TVArV-33" style="edgeStyle=orthogonalEdgeStyle;rounded=0;orthogonalLoop=1;jettySize=auto;html=1;exitX=0.5;exitY=1;exitDx=0;exitDy=0;entryX=0.5;entryY=0;entryDx=0;entryDy=0;" edge="1" parent="1" source="3vJK2soGwi-nod_TVArV-30" target="3vJK2soGwi-nod_TVArV-8">
          <mxGeometry relative="1" as="geometry" />
        </mxCell>
        <mxCell id="3vJK2soGwi-nod_TVArV-30" value="宝箱队列是否为空" style="rhombus;whiteSpace=wrap;html=1;" vertex="1" parent="1">
          <mxGeometry x="345" y="310" width="130" height="50" as="geometry" />
        </mxCell>
        <mxCell id="3vJK2soGwi-nod_TVArV-36" value="否" style="text;html=1;align=center;verticalAlign=middle;resizable=0;points=[];autosize=1;strokeColor=none;fillColor=none;" vertex="1" parent="1">
          <mxGeometry x="500" y="298" width="40" height="30" as="geometry" />
        </mxCell>
        <mxCell id="3vJK2soGwi-nod_TVArV-37" value="是" style="text;html=1;align=center;verticalAlign=middle;resizable=0;points=[];autosize=1;strokeColor=none;fillColor=none;" vertex="1" parent="1">
          <mxGeometry x="360" y="375" width="40" height="30" as="geometry" />
        </mxCell>
        <mxCell id="3vJK2soGwi-nod_TVArV-41" value="是" style="text;html=1;align=center;verticalAlign=middle;resizable=0;points=[];autosize=1;strokeColor=none;fillColor=none;" vertex="1" parent="1">
          <mxGeometry x="480" y="460" width="40" height="30" as="geometry" />
        </mxCell>
        <mxCell id="3vJK2soGwi-nod_TVArV-42" value="否" style="text;html=1;align=center;verticalAlign=middle;resizable=0;points=[];autosize=1;strokeColor=none;fillColor=none;" vertex="1" parent="1">
          <mxGeometry x="370" y="530" width="40" height="30" as="geometry" />
        </mxCell>
        <mxCell id="3vJK2soGwi-nod_TVArV-44" style="edgeStyle=orthogonalEdgeStyle;rounded=0;orthogonalLoop=1;jettySize=auto;html=1;exitX=0.5;exitY=1;exitDx=0;exitDy=0;" edge="1" parent="1" source="3vJK2soGwi-nod_TVArV-21" target="3vJK2soGwi-nod_TVArV-21">
          <mxGeometry relative="1" as="geometry" />
        </mxCell>
      </root>
    </mxGraphModel>
  </diagram>
</mxfile>
